<svg height="640" viewBox="0 0 480 480" width="640" xmlns="http://www.w3.org/2000/svg">
  <path d="M240 0C107.453125 0 0 107.453125 0 240s107.453125 240 240 240 240-107.453125 240-240C479.851562 107.515625 372.484375.148438 240 0zm207.566406 324.078125L379.3125 335.855469C387.125 307.203125 391.34375 277.691406 391.871094 248h71.929687c-.902343 26.117188-6.398437 51.871094-16.234375 76.078125zM16.199219 248h71.929687c.527344 29.691406 4.746094 59.203125 12.558594 87.855469l-68.253906-11.777344C22.597656 299.871094 17.101562 274.117188 16.199219 248zm16.234375-92.078125l68.253906-11.777344C92.875 172.796875 88.65625 202.308594 88.128906 232H16.199219c.902343-26.117188 6.398437-51.871094 16.234375-76.078125zM248 128.449219c28.746094.367187 57.421875 2.984375 85.761719 7.832031L362 141.152344c8.675781 29.523437 13.34375 60.078125 13.878906 90.847656H248zm88.488281-7.9375C307.25 115.515625 277.660156 112.816406 248 112.449219v-96c45.863281 4.40625 85.703125 46.398437 108.28125 107.511719zM232 112.449219c-29.660156.367187-59.242188 3.066406-88.480469 8.0625L123.71875 123.9375C146.296875 62.808594 186.136719 20.800781 232 16.414062zm-85.753906 23.832031c28.335937-4.847656 57.007812-7.464844 85.753906-7.832031V232H104.121094c.535156-30.769531 5.203125-61.324219 13.878906-90.847656zM104.121094 248H232v103.550781c-28.746094-.367187-57.421875-2.984375-85.761719-7.832031L118 338.847656C109.324219 309.324219 104.65625 278.769531 104.121094 248zm39.390625 111.488281C172.75 364.492188 202.335938 367.203125 232 367.59375v96c-45.863281-4.410156-85.703125-46.402344-108.28125-107.515625zM248 367.59375c29.660156-.390625 59.242188-3.101562 88.480469-8.105469l19.800781-3.425781C333.703125 417.191406 293.863281 459.199219 248 463.585938zm85.753906-23.875c-28.335937 4.847656-57.007812 7.464844-85.753906 7.832031V248h127.878906c-.535156 30.769531-5.203125 61.324219-13.878906 90.847656zM391.871094 232c-.527344-29.691406-4.746094-59.203125-12.558594-87.855469l68.253906 11.777344c9.835938 24.207031 15.332032 49.960937 16.234375 76.078125zm47.601562-93.710938L374.046875 127c-11.761719-38.371094-33.765625-72.808594-63.648437-99.601562 55.878906 18.648437 102.21875 58.457031 129.074218 110.890624zM169.601562 27.398438C139.71875 54.191406 117.714844 88.628906 105.953125 127l-65.425781 11.289062c26.855468-52.433593 73.195312-92.242187 129.074218-110.890624zm-129.074218 314.3125L105.953125 353c11.761719 38.371094 33.765625 72.808594 63.648437 99.601562-55.878906-18.648437-102.21875-58.457031-129.074218-110.890624zm269.871094 110.890624C340.28125 425.808594 362.285156 391.371094 374.046875 353l65.425781-11.289062c-26.855468 52.433593-73.195312 92.242187-129.074218 110.890624zm0 0"/>
</svg>
