<svg xmlns="http://www.w3.org/2000/svg" viewBox="0 0 477.874 477.874" fill="#aaa">
  <path d="M460.812 0c-2.651-.001-5.266.615-7.637 1.8L323.844 66.483 177.6 1.476c-.239-.102-.512-.12-.768-.222-.658-.246-1.331-.451-2.014-.614-.679-.183-1.369-.326-2.065-.427-1.386-.114-2.779-.114-4.164 0-.696.101-1.386.244-2.065.427-.683.163-1.356.368-2.014.614-.256.102-.529.119-.768.222l-153.6 68.267C3.976 72.481.003 78.595.004 85.341v375.467c.003 5.774 2.924 11.155 7.765 14.302 4.842 3.152 10.949 3.64 16.23 1.297l146.671-65.195 146.671 65.195c.256.102.529 0 .785.154 4.132 1.848 8.875 1.742 12.919-.29.273-.119.58 0 .853-.188l136.533-68.267c5.786-2.891 9.441-8.806 9.438-15.275V17.075C477.875 7.649 470.237.004 460.812 0zM153.604 381.448L34.137 434.542V96.435L153.604 43.34v338.108zm153.6 53.094l-119.467-53.094V43.34l119.467 53.094v338.108zm136.533-52.548l-102.4 51.2V95.888l102.4-51.2v337.306z"/>
</svg>
