<svg height="512" width="512" xmlns="http://www.w3.org/2000/svg" fill="#aaa">
  <path d="M470.369 83.117h-65.438l-.048-68.128c-.006-8.28-6.72-14.989-15-14.989H41.631c-8.284 0-15 6.716-15 15v436.274c0 33.484 27.298 60.726 60.868 60.726h342.798c30.367 0 55.072-25.036 55.072-55.403V98.117c0-8.284-6.716-15-15-15zM87.482 482c-17.012 0-30.851-13.783-30.851-30.726V30h318.263l.319 452.017zm367.887-25.403c0 13.825-11.247 25.403-25.072 25.403h-25.084l-.261-368.883h50.417z"/>
  <path d="M98.802 395.029h130.363c8.284 0 15-6.716 15-15V259.87c0-8.284-6.716-15-15-15H98.802c-8.284 0-15 6.716-15 15v120.159c0 8.285 6.716 15 15 15zm15-120.159h100.363v90.159H113.802zM333.053 184.943H98.802c-8.284 0-15 6.716-15 15s6.716 15 15 15h234.251c8.284 0 15-6.716 15-15s-6.716-15-15-15zM333.053 124.943H98.802c-8.284 0-15 6.716-15 15s6.716 15 15 15h234.251c8.284 0 15-6.716 15-15s-6.716-15-15-15zM333.053 64.943H98.802c-8.284 0-15 6.716-15 15s6.716 15 15 15h234.251c8.284 0 15-6.716 15-15s-6.716-15-15-15zM333.053 424.87H99.165c-8.284 0-15 6.716-15 15s6.716 15 15 15h233.888c8.284 0 15-6.716 15-15s-6.716-15-15-15zM333.053 364.87h-43.888c-8.284 0-15 6.716-15 15s6.716 15 15 15h43.888c8.284 0 15-6.716 15-15s-6.716-15-15-15zM333.053 304.87h-43.888c-8.284 0-15 6.716-15 15s6.716 15 15 15h43.888c8.284 0 15-6.716 15-15s-6.716-15-15-15zM333.053 244.87h-43.888c-8.284 0-15 6.716-15 15s6.716 15 15 15h43.888c8.284 0 15-6.716 15-15s-6.716-15-15-15z"/>
</svg>
