<svg xmlns="http://www.w3.org/2000/svg" viewBox="0 0 512 512" width="30" height="30" fill="#aaa" stroke-width="2px">
  <path d="M482.763 379.323l-81.704-48.905-.254-21.704c10.298-13.386 17.657-28.793 21.596-45.216.727-3.807 2.56-7.314 5.271-10.083 6.771-6.827 10.58-16.047 10.6-25.663v-26.283c.023-5.62-1.279-11.166-3.8-16.188l-1.504-3.004c-1.32-2.684-2.016-5.633-2.033-8.625v-37.804c-.041-37.308-30.275-67.542-67.583-67.583h-13.055c-12.954-26.099-39.558-42.623-68.695-42.667h-51.2c-29.137.043-55.742 16.567-68.695 42.667H148.65c-37.308.041-67.542 30.275-67.583 67.583v37.804c-.014 2.966-.698 5.89-2 8.554l-1.5 3.008c-2.544 5.039-3.859 10.609-3.837 16.254v26.283c.02 9.616 3.83 18.837 10.604 25.663 2.713 2.778 4.547 6.294 5.271 10.108 3.85 16.195 11.123 31.378 21.329 44.529v22.371L29.226 379.33C11.149 390.255.073 409.811 0 430.931v46.933c0 4.713 3.82 8.533 8.533 8.533h213.31l.023.004.028-.004h68.212l.028.004.023-.004h213.31c4.713 0 8.533-3.82 8.533-8.533v-46.933c-.074-21.125-11.155-40.684-29.237-51.608zm-78.849-27.305l-14.829 14.829-18.352-11.017 19.918-11.951c.375.269.68.609 1.082.848l12.181 7.291zm-48.877-114.724c7.642-7.601 11.926-17.943 11.896-28.721V178.24c-.006-6.305-1.474-12.524-4.287-18.167l-1.763-3.521c-1.631-3.271-2.481-6.875-2.483-10.529v-43.625c-.017-5.745-.68-11.47-1.978-17.067h6.928c27.886.032 50.484 22.63 50.517 50.517v37.804c.024 5.614 1.324 11.149 3.8 16.188l1.575 3.142c1.312 2.636 1.984 5.544 1.963 8.488v26.283c-.008 5.092-2.021 9.977-5.604 13.596-5.079 5.132-8.53 11.649-9.921 18.733-3.524 14.134-9.955 27.378-18.883 38.887-1.809 2.685-2.782 5.846-2.796 9.083v19.914l-29.849 17.909-29.884-17.94-.008-26.479c11.702-15.338 19.978-33.008 24.271-51.817.904-4.666 3.168-8.961 6.506-12.345zM256 370.465l15.534 15.534-11.272 15.066h-8.525l-11.272-15.066L256 370.465zm-35.654 11.516l-46.881-25.577 22.914-13.756c.161-.094.276-.235.433-.333l44.243 18.961-20.709 20.705zm50.599-20.705l44.23-18.956c.127.079.22.194.35.27l23.01 13.815-46.881 25.577-20.709-20.706zM162.133 178.24c.003-3.656.854-7.262 2.487-10.533l1.754-3.512c2.816-5.644 4.285-11.864 4.292-18.171v-43.625c.037-32.974 26.759-59.696 59.733-59.733h51.2c32.974.037 59.696 26.759 59.733 59.733v43.625c.006 6.305 1.474 12.524 4.287 18.167l1.762 3.521c1.631 3.271 2.481 6.875 2.483 10.529v30.333c.015 6.257-2.474 12.26-6.913 16.671-5.707 5.748-9.586 13.056-11.15 21.004-3.857 16.439-11.159 31.872-21.425 45.279-2.057 2.88-3.168 6.328-3.179 9.867v25.779L256 349.115l-51.2-21.942v-25.779c-.017-3.579-1.154-7.062-3.25-9.963-10.234-13.381-17.512-28.781-21.354-45.183-1.566-7.955-5.452-15.27-11.167-21.021-4.43-4.408-6.912-10.405-6.896-16.654V178.24zm-55.808 81.866c-1.389-7.093-4.84-13.618-9.921-18.758-3.585-3.617-5.601-8.503-5.608-13.596v-26.283c-.019-2.969.666-5.901 2-8.554l1.571-3.146c2.458-5.018 3.745-10.529 3.766-16.117v-37.804c.032-27.886 22.63-50.485 50.517-50.517h6.928c-1.297 5.597-1.961 11.322-1.978 17.067v43.625c-.003 3.656-.854 7.262-2.487 10.533l-1.754 3.512c-2.816 5.644-4.285 11.864-4.292 18.171v30.333c-.028 10.786 4.262 21.135 11.913 28.737 3.33 3.381 5.588 7.67 6.492 12.329 4.284 18.791 12.558 36.441 24.262 51.754l-.037 26.563-29.848 17.919L128 327.966v-19.914c-.032-3.354-1.076-6.62-2.996-9.371-8.836-11.423-15.197-24.559-18.679-38.575zm13.913 84.638c.412-.245.724-.592 1.108-.867l19.921 11.953-18.352 11.017-14.829-14.829 12.152-7.274zM59.733 469.331H17.067v-38.4c.055-15.13 7.99-29.138 20.938-36.966l54.985-32.911 14.845 14.845-14.955 8.978c-20.493 12.393-33.053 34.564-33.146 58.513v25.941zm17.067 0V443.39c-.06-17.998 9.399-34.688 24.871-43.883l48.838-29.32 56.654 99.144H76.8zm143.457-11.481l-46.889-82.056 44.411 24.229c3.324 1.812 7.444 1.219 10.121-1.458l.372-.372 9.564 12.78-17.579 46.877zm13.925 11.481l19.2-51.2h5.236l19.2 51.2h-43.636zm39.982-58.359l9.564-12.78.372.372c2.677 2.677 6.797 3.271 10.121 1.458l44.411-24.229-46.889 82.056-17.579-46.877zm30.673 58.359l56.654-99.145 48.83 29.316c15.476 9.195 24.938 25.886 24.879 43.888v25.941H304.837zm190.096 0h-42.667V443.39c-.094-23.952-12.657-46.125-33.154-58.517l-14.947-8.974 14.846-14.846 54.972 32.902c12.954 7.828 20.893 21.84 20.95 36.975v38.401z"/>
</svg>
