<svg xmlns="http://www.w3.org/2000/svg" viewBox="0 0 64 64" width="30" height="30" fill="#ccc">
  <g data-name="Paticipatation">
    <path d="M61.938 48.8l-4.24-4.25a1 1 0 00-.708-.294 1 1 0 00-.708.3l-.706.706-.512-.512-1.344-5.382a1.008 1.008 0 00-.262-.465L43 28.437V16a1 1 0 00-.143-.515L40 10.723V10h1a1 1 0 001-1V3a1 1 0 00-1-1H25a1 1 0 00-1 1v6a1 1 0 001 1v.586l-3.707 3.707A1 1 0 0021 15v12a2.969 2.969 0 00.252 1.184L10.542 38.9a1.008 1.008 0 00-.262.465l-1.343 5.384-.515.514-.706-.706a1 1 0 00-1.414 0L2.059 48.8a1 1 0 000 1.414l11.314 11.313a1 1 0 001.414 0l4.242-4.243a1 1 0 000-1.411l.413-.413h5.248a1 1 0 00.707-.293L32 48.556l6.6 6.611a1 1 0 00.707.293h5.246l.415.415a1 1 0 000 1.409l4.24 4.24a1 1 0 001.414 0l11.31-11.31a1 1 0 00.006-1.414zM26 4h14v4H26zm.707 7.707A1 1 0 0027 11v-1h11v1a1 1 0 00.143.515L41 16.277V26.9a3.126 3.126 0 00-2 .012V25h-2v3.1l-.513-.513A2.987 2.987 0 0035 26.773V25h-2v2.036a2.841 2.841 0 00-1.332 1.388l-.131-.131a2.934 2.934 0 00-.537-.419V25h-2v2.452a2.989 2.989 0 00-1.707.841 2.942 2.942 0 00-.444.585 2.946 2.946 0 00-.2-.5A2.931 2.931 0 0027 27v-6h-2v5.9a3.009 3.009 0 00-2 0V15.414zM14.08 59.406l-9.9-9.9 2.829-2.828 9.9 9.9zm10.195-5.946H19.03a1 1 0 00-.707.293l-.705.7-7.781-7.776.71-.71a1.006 1.006 0 00.263-.465l1.343-5.381 11.1-11.115a1.011 1.011 0 011.409-.024c.016.019.031.038.048.056a.991.991 0 01-.032 1.375l-4.95 4.95 1.414 1.414 4.95-4.95a3.016 3.016 0 00.446-.589 2.962 2.962 0 00.749 1.3l.125.125a3.024 3.024 0 00-.835.581 2.984 2.984 0 00-.847 1.777l-.433.433-2.74 2.74 1.414 1.414 2.383-2.383a2.924 2.924 0 00.223.263l1.175 1.171-2.365 2.365 1.414 1.414 2.367-2.367.132.131a.893.893 0 00.077.086l1.2 1.2-5.19 5.185 1.414 1.414 2.6-2.6a2.975 2.975 0 00.717 1.189l.463.464zm15.45 0l-8.188-8.2a1 1 0 010-1.416.891.891 0 01.463-.254.984.984 0 00.242-.03.984.984 0 01.689.266l4.258 4.258 1.414-1.414-10.62-10.61a.961.961 0 01-.279-.658 1 1 0 01.956-1.044 1.054 1.054 0 00.113.009 1.025 1.025 0 01.636.287l7.78 7.78 1.414-1.414-9.9-9.9a1 1 0 010-1.416.99.99 0 01.713-.287.955.955 0 01.3.05.921.921 0 01.4.237l9.9 9.9 1.414-1.414-7.782-7.79a.96.96 0 01-.279-.66 1 1 0 01.288-.74 1.077 1.077 0 01.588-.287.527.527 0 01.115-.01 1.006 1.006 0 01.713.3l7.78 7.78 1.414-1.414-4.95-4.95a1 1 0 010-1.416 1.022 1.022 0 011.416 0l11.114 11.118L53.19 45.5a1.006 1.006 0 00.263.465l.708.708-7.781 7.783-.7-.7a1 1 0 00-.707-.293zm10.2 5.946l-2.831-2.831 9.9-9.9 2.824 2.832z"/>
    <path d="M19.65 17.561l-1.3-1.52a21.031 21.031 0 00-7.115 19.108l1.977-.3A19.189 19.189 0 0113 32a18.987 18.987 0 016.65-14.439zM33.049 52.975l-.1-2c-.63.031-1.272.031-1.9 0l-.1 2c.347.016.7.025 1.049.025s.702-.009 1.051-.025zM52.9 34.1c.069-.691.1-1.4.1-2.1a20.986 20.986 0 00-7.35-15.959l-1.3 1.52A18.987 18.987 0 0151 32c0 .636-.032 1.276-.094 1.9z"/>
    <path d="M9.5 36.792a23.039 23.039 0 0112.917-25.707l-.834-1.817a25.042 25.042 0 00-14.04 27.94zM28.166 54.682l-.332 1.972a25.253 25.253 0 008.332 0l-.332-1.972a23.38 23.38 0 01-7.668 0zM55 32a23.126 23.126 0 01-.5 4.792l1.957.416A25.044 25.044 0 0044.5 10.345l-1 1.732A23.087 23.087 0 0155 32z"/>
  </g>
</svg>
